<svg width="40" height="40" viewBox="0 0 40 40" fill="none" xmlns="http://www.w3.org/2000/svg">
<rect width="40" height="40" fill="white"/>
<path d="M4.88309 20.8266L4.38376 21.4609C4.30026 21.5504 4.28876 21.5987 4.29389 21.6129C4.29789 21.6249 4.32751 21.6484 4.41313 21.6618C5.30043 21.7889 6.13387 21.8511 6.96205 21.8511C8.16296 21.8511 9.33899 21.7158 10.5575 21.438C11.8423 21.1106 13.0828 20.6737 14.3962 20.2113L14.4192 20.203C14.9117 20.0303 15.4208 19.8515 15.9427 19.6746C16.2734 19.5557 16.611 19.4368 16.9571 19.3195C19.3106 18.4778 21.5365 18.0682 23.7626 18.0682C27.2351 18.0682 30.5422 19.0641 34.4397 20.559C34.4932 20.5852 34.5232 20.5765 34.537 20.5547C34.5476 20.5391 34.5397 20.5165 34.5351 20.5036L33.2416 18.2077L33.1222 18.2082C33.0908 18.2082 33.0632 18.1893 33.0508 18.1607L32.6211 17.15L31.4515 17.1538C31.4331 17.1551 31.4117 17.1455 31.3966 17.1308C31.3819 17.1165 31.3736 17.0966 31.3736 17.0759C31.3736 16.7918 31.3745 16.5069 31.3755 16.2228C31.3764 15.9441 31.3774 15.6654 31.3774 15.3861H29.9373C29.8945 15.3861 29.859 15.3517 29.859 15.3084C29.859 15.1024 29.859 14.8956 29.8581 14.6893C29.8581 14.488 29.8568 14.2867 29.8568 14.0849L29.1474 14.0813C29.105 14.0813 29.0709 14.0463 29.0709 14.0034V13.3759H26.8575C26.8575 13.5487 26.8562 13.7214 26.8556 13.8938C26.8543 14.0716 26.8543 14.2495 26.8543 14.4274C26.8543 14.4702 26.8192 14.5047 26.776 14.5047H26.4046V15.3087C26.4046 15.352 26.3696 15.3864 26.3268 15.3864H25.6612C25.6183 15.3864 25.5837 15.3519 25.5837 15.3087V12.448L24.367 12.4516C24.367 12.6597 24.3652 12.8681 24.3629 13.0763C24.3607 13.2896 24.3583 13.5024 24.3583 13.7153C24.3583 13.7585 24.3237 13.7932 24.2804 13.7932H23.5471C23.5042 13.7932 23.4691 13.7585 23.4691 13.7153V12.1448H23.0993C23.0569 12.1448 23.0224 12.1103 23.0224 12.0675V11.8004H22.6202C22.5768 11.8004 22.5424 11.7654 22.5424 11.7224V11.6713H22.3143C22.2715 11.6713 22.2365 11.6363 22.2365 11.5938V11.1557H21.938V11.5938C21.938 11.6363 21.9035 11.6713 21.8605 11.6713H21.6315V11.7224C21.6315 11.7654 21.5965 11.8004 21.5541 11.8004H21.1515V12.0675C21.1515 12.1104 21.1174 12.1448 21.0742 12.1448H20.7056V15.0544C20.7056 15.0973 20.6706 15.1323 20.6277 15.1323H19.8939C19.851 15.1323 19.816 15.0973 19.816 15.0544V13.8014H18.8219V15.7522C18.8219 15.7952 18.7865 15.8302 18.744 15.8302H18.3764C18.3335 15.8302 18.2989 15.7952 18.2989 15.7522V11.8827H17.2325C17.2325 12.0647 17.2316 12.2467 17.2312 12.4286C17.2307 12.6151 17.2299 12.8026 17.2299 12.9896C17.2299 13.0325 17.1949 13.0671 17.1526 13.0671H16.8526L16.8508 13.6117C16.8508 13.6545 16.8161 13.6892 16.7733 13.6892H16.372V15.7137C16.372 15.7566 16.3374 15.7912 16.2946 15.7912H15.6054C15.5847 15.7912 15.5652 15.7829 15.5501 15.7686C15.5359 15.7535 15.5271 15.7331 15.5275 15.7125L15.5371 15.155H14.4112C14.3688 15.155 14.3343 15.12 14.3343 15.0772V14.8091C14.3343 14.7712 14.3611 14.739 14.398 14.7326L14.4896 14.716L14.3611 14.6681C14.3361 14.659 14.3177 14.6373 14.3122 14.611C14.258 14.3475 14.2026 14.1332 14.1497 13.9263C14.1049 13.7532 14.0585 13.5753 14.0129 13.3672C14.0129 13.3708 14.0129 13.3751 14.0124 13.3791C14.0111 13.4276 14.0096 13.4773 14.0096 13.5255C14.0096 13.5689 13.975 13.6039 13.9319 13.6039H13.4054C13.3625 13.6039 13.3289 13.5698 13.3279 13.5274L13.3243 13.3663C13.2785 13.5744 13.2325 13.7527 13.1879 13.9264C13.1349 14.1332 13.0786 14.3475 13.0252 14.6111C13.0197 14.6373 13.0008 14.6591 12.9754 14.6682L12.8473 14.7161L12.9392 14.7327C12.9754 14.7391 13.0027 14.7713 13.0027 14.8092V15.871C13.0027 15.9139 12.9677 15.9489 12.9253 15.9489H11.7994C11.7994 16.0317 11.7994 16.1152 11.7985 16.1985C11.7977 16.287 11.7977 16.3754 11.7977 16.4634C11.7977 16.5063 11.7627 16.5407 11.7197 16.5407L11.0517 16.5421V17.398C11.0517 17.4409 11.0167 17.4759 10.9734 17.4759H10.2695V18.0927C10.2695 18.1356 10.2359 18.1706 10.1927 18.1706H9.83145C9.78908 18.1706 9.7537 18.1356 9.7537 18.0927C9.7537 17.9194 9.7532 17.7462 9.7522 17.5735C9.75183 17.4054 9.75095 17.2376 9.75095 17.0694H7.36652V18.8486C7.36652 18.891 7.33152 18.926 7.28902 18.926L6.51971 18.9297C6.51921 19.1803 6.51884 19.4318 6.51834 19.6828C6.51709 19.9394 6.51709 20.1956 6.51709 20.4526C6.51709 20.4896 6.49084 20.5209 6.45384 20.5286L4.88309 20.8271V20.8266ZM6.96205 22.0064C6.12624 22.0064 5.28568 21.9438 4.39013 21.8153C4.25564 21.795 4.17402 21.7434 4.1474 21.6633C4.11753 21.5767 4.15702 21.4749 4.26627 21.3602L4.75823 20.7276C4.7771 20.7027 4.80985 20.6875 4.82735 20.6806C4.83197 20.6787 4.83647 20.6774 4.8416 20.6764L6.36185 20.3871C6.36185 20.1523 6.36222 19.9173 6.36272 19.6818C6.3636 19.4252 6.3641 19.1691 6.3641 18.9126C6.3641 18.8361 6.42722 18.7739 6.50409 18.7739L7.21028 18.7706V17.0533C7.21028 16.9764 7.2734 16.9138 7.34989 16.9138H9.76695C9.84345 16.9138 9.90619 16.9763 9.90619 17.0533C9.90619 17.226 9.90657 17.3992 9.90807 17.5725C9.90807 17.7196 9.90894 17.8673 9.90894 18.0142H10.1148V17.4591C10.1148 17.3822 10.1769 17.32 10.2544 17.32H10.8965V16.5249C10.8965 16.4481 10.9587 16.3858 11.0352 16.3858L11.6424 16.3853C11.6424 16.3227 11.6428 16.2596 11.6433 16.1968C11.6437 16.1085 11.6452 16.0201 11.6452 15.932C11.6452 15.8551 11.7069 15.7924 11.7839 15.7924H12.8475V14.8728L12.7618 14.8573C12.6955 14.8453 12.6481 14.7896 12.6481 14.7256C12.6481 14.6642 12.6831 14.6103 12.7375 14.5896L12.8817 14.5371C12.9342 14.2892 12.9862 14.0846 13.0373 13.887C13.0912 13.6787 13.1464 13.4637 13.2008 13.1988C13.2147 13.1343 13.2723 13.0882 13.3373 13.0882C13.422 13.0952 13.4768 13.1546 13.4768 13.2259L13.4819 13.4476H13.8551C13.856 13.4232 13.8564 13.3982 13.8579 13.3728C13.8591 13.3236 13.8606 13.2747 13.8606 13.2259C13.8606 13.1545 13.915 13.0951 13.9864 13.0886H13.9882C14.0675 13.0886 14.1242 13.1352 14.1366 13.1997C14.1915 13.4636 14.2462 13.6787 14.3002 13.887C14.3508 14.0845 14.4038 14.2892 14.4562 14.5371L14.5987 14.5891C14.6543 14.6103 14.6894 14.6633 14.6894 14.7256C14.6894 14.7896 14.6419 14.8444 14.5764 14.8573L14.4898 14.8728V14.9991H15.554C15.5591 14.9991 15.5641 14.9996 15.5687 15.0006C15.5899 15.0046 15.6287 15.0157 15.6535 15.0401C15.677 15.0659 15.6872 15.1037 15.6912 15.1244C15.6926 15.1294 15.6926 15.1349 15.6926 15.1404L15.6847 15.6348H16.2172V13.6724C16.2172 13.5959 16.2789 13.5333 16.3564 13.5333H16.6959L16.6971 13.0506C16.6971 12.9741 16.7598 12.9113 16.8368 12.9113H17.0745C17.075 12.7501 17.075 12.589 17.0754 12.4271C17.0762 12.2402 17.0767 12.0532 17.0767 11.8662C17.0767 11.7897 17.1389 11.7269 17.2164 11.7269H18.3145C18.392 11.7269 18.4541 11.7896 18.4541 11.8662V15.674H18.6655V13.7843C18.6655 13.7079 18.7287 13.6462 18.8051 13.6462H19.8324C19.9089 13.6462 19.9716 13.7079 19.9716 13.7843V14.9766H20.5497V12.1283C20.5497 12.0518 20.6118 11.9895 20.6888 11.9895H20.9961V11.7837C20.9961 11.7068 21.0583 11.6437 21.1353 11.6437H21.4766C21.4826 11.5722 21.543 11.5161 21.6163 11.5161H21.7825V11.1396C21.7825 11.0627 21.8442 11 21.9217 11H22.252C22.3288 11 22.3911 11.0626 22.3911 11.1396V11.5161H22.5583C22.631 11.5161 22.6915 11.5722 22.6974 11.6437H23.0379C23.1149 11.6437 23.1775 11.7068 23.1775 11.7837V11.9895H23.4852C23.5617 11.9895 23.6248 12.0517 23.6248 12.1287V13.6374H24.2025C24.2029 13.4496 24.2048 13.2614 24.2075 13.074C24.2095 12.8612 24.2123 12.6484 24.2123 12.435C24.2123 12.359 24.2739 12.2969 24.35 12.2959L25.5984 12.2926H25.5993C25.6036 12.2926 25.6089 12.2926 25.6141 12.2935C25.6348 12.2976 25.6729 12.3088 25.6983 12.3336C25.7214 12.3576 25.7324 12.395 25.7366 12.4153C25.7379 12.4204 25.7379 12.4258 25.7379 12.4314V15.2309H26.2493V14.4887C26.2493 14.4119 26.3118 14.3491 26.3884 14.3491H26.6992C26.6992 14.1971 26.6992 14.0448 26.7001 13.8931C26.7006 13.7149 26.7016 13.537 26.7016 13.3597C26.7016 13.2832 26.7642 13.2204 26.8406 13.2204H29.0859C29.1623 13.2204 29.2255 13.2831 29.2255 13.3597V13.9263L29.8732 13.9295C29.9501 13.9299 30.0123 13.9926 30.0123 14.068C30.0123 14.2749 30.0128 14.4822 30.0137 14.6886C30.0137 14.8692 30.0141 15.0503 30.015 15.2309H31.3929C31.3984 15.2309 31.4029 15.2313 31.4085 15.2322C31.4291 15.2368 31.467 15.2474 31.4923 15.2719C31.5162 15.2973 31.5268 15.3344 31.5306 15.3553C31.5318 15.3599 31.5325 15.3655 31.5325 15.37C31.5325 15.6548 31.5316 15.939 31.5306 16.2231C31.5301 16.4811 31.5292 16.7395 31.5292 16.9979L32.631 16.9946C32.6882 16.9946 32.7389 17.0278 32.7606 17.0799L33.1737 18.0528L33.2502 18.0523C33.3008 18.0523 33.3473 18.0794 33.3723 18.1228L34.6737 20.4349C34.7078 20.5112 34.704 20.5827 34.6677 20.6394C34.6101 20.7265 34.4816 20.7545 34.3761 20.7006C30.5028 19.215 27.2104 18.2237 23.7625 18.2237C21.555 18.2237 19.3461 18.6299 17.0086 19.4654C16.6622 19.5834 16.3251 19.7018 15.9937 19.8207C15.4709 19.9977 14.9628 20.1764 14.4703 20.3495L14.4482 20.3574C13.1312 20.8213 11.8874 21.2586 10.5938 21.5888C9.36186 21.8698 8.17433 22.0061 6.96193 22.0061L6.96205 22.0064Z" fill="#334D2C"/>
<path fill-rule="evenodd" clip-rule="evenodd" d="M23.195 15.5137H23.5507V16.0461H23.195V15.5137Z" fill="#334D2C"/>
<path fill-rule="evenodd" clip-rule="evenodd" d="M22.5861 12.3157H22.9412V12.8485H22.5861V12.3157Z" fill="#334D2C"/>
<path fill-rule="evenodd" clip-rule="evenodd" d="M22.5861 14.2698H22.9412V14.8027H22.5861V14.2698Z" fill="#334D2C"/>
<path fill-rule="evenodd" clip-rule="evenodd" d="M22.5861 16.7568H22.9412V17.2899H22.5861V16.7568Z" fill="#334D2C"/>
<path fill-rule="evenodd" clip-rule="evenodd" d="M21.9766 15.5137H22.3317V16.0461H21.9766V15.5137Z" fill="#334D2C"/>
<path fill-rule="evenodd" clip-rule="evenodd" d="M21.3676 12.3157H21.7228V12.8485H21.3676V12.3157Z" fill="#334D2C"/>
<path fill-rule="evenodd" clip-rule="evenodd" d="M21.3676 13.6479H21.7228V14.181H21.3676V13.6479Z" fill="#334D2C"/>
<path fill-rule="evenodd" clip-rule="evenodd" d="M21.3676 14.8923H21.7228V15.4248H21.3676V14.8923Z" fill="#334D2C"/>
<path fill-rule="evenodd" clip-rule="evenodd" d="M20.7586 15.5137H21.1151V16.0461H20.7586V15.5137Z" fill="#334D2C"/>
<path fill-rule="evenodd" clip-rule="evenodd" d="M20.7586 16.7568H21.1151V17.2899H20.7586V16.7568Z" fill="#334D2C"/>
<path fill-rule="evenodd" clip-rule="evenodd" d="M15.747 16.8196H16.1022V17.353H15.747V16.8196Z" fill="#334D2C"/>
<path fill-rule="evenodd" clip-rule="evenodd" d="M15.747 18.0635H16.1022V18.5963H15.747V18.0635Z" fill="#334D2C"/>
<path fill-rule="evenodd" clip-rule="evenodd" d="M14.7427 15.5767H15.0993V16.1086H14.7427V15.5767Z" fill="#334D2C"/>
<path fill-rule="evenodd" clip-rule="evenodd" d="M14.7427 18.0635H15.0993V18.5963H14.7427V18.0635Z" fill="#334D2C"/>
<path fill-rule="evenodd" clip-rule="evenodd" d="M14.1339 16.8196H14.4899V17.353H14.1339V16.8196Z" fill="#334D2C"/>
<path fill-rule="evenodd" clip-rule="evenodd" d="M13.5253 14.9548H13.8804V15.4869H13.5253V14.9548Z" fill="#334D2C"/>
<path fill-rule="evenodd" clip-rule="evenodd" d="M13.5253 16.1978H13.8804V16.7308H13.5253V16.1978Z" fill="#334D2C"/>
<path fill-rule="evenodd" clip-rule="evenodd" d="M12.9157 16.8196H13.2714V17.353H12.9157V16.8196Z" fill="#334D2C"/>
<path fill-rule="evenodd" clip-rule="evenodd" d="M12.9157 18.0635H13.2714V18.5963H12.9157V18.0635Z" fill="#334D2C"/>
<path fill-rule="evenodd" clip-rule="evenodd" d="M12.9157 19.3071H13.2714V19.8397H12.9157V19.3071Z" fill="#334D2C"/>
<path fill-rule="evenodd" clip-rule="evenodd" d="M10.5175 17.9788H10.8731V18.5112H10.5175V17.9788Z" fill="#334D2C"/>
<path fill-rule="evenodd" clip-rule="evenodd" d="M10.5175 19.2224H10.8731V19.755H10.5175V19.2224Z" fill="#334D2C"/>
<path fill-rule="evenodd" clip-rule="evenodd" d="M9.06378 19.4734H9.41975V20.0055H9.06378V19.4734Z" fill="#334D2C"/>
<path fill-rule="evenodd" clip-rule="evenodd" d="M9.06378 18.2297H9.41925V18.7623H9.06378V18.2297Z" fill="#334D2C"/>
<path fill-rule="evenodd" clip-rule="evenodd" d="M8.45471 17.6082H8.80981V18.1412H8.45471V17.6082Z" fill="#334D2C"/>
<path fill-rule="evenodd" clip-rule="evenodd" d="M7.84576 18.2297H8.20086V18.7623H7.84576V18.2297Z" fill="#334D2C"/>
<path fill-rule="evenodd" clip-rule="evenodd" d="M7.84576 19.4734H8.20086V20.0055H7.84576V19.4734Z" fill="#334D2C"/>
<path fill-rule="evenodd" clip-rule="evenodd" d="M7.84576 20.7173H8.20086V21.2499H7.84576V20.7173Z" fill="#334D2C"/>
<path fill-rule="evenodd" clip-rule="evenodd" d="M29.3721 16.0037H29.7278V16.5362H29.3721V16.0037Z" fill="#334D2C"/>
<path fill-rule="evenodd" clip-rule="evenodd" d="M29.3721 17.2466H29.7278V17.78H29.3721V17.2466Z" fill="#334D2C"/>
<path fill-rule="evenodd" clip-rule="evenodd" d="M28.7621 14.76H29.1183V15.2931H28.7621V14.76Z" fill="#334D2C"/>
<path fill-rule="evenodd" clip-rule="evenodd" d="M28.1533 16.6257H28.5094V17.1583H28.1533V16.6257Z" fill="#334D2C"/>
<path fill-rule="evenodd" clip-rule="evenodd" d="M27.545 14.1384H27.9003V14.671H27.545V14.1384Z" fill="#334D2C"/>
<path fill-rule="evenodd" clip-rule="evenodd" d="M27.545 15.3818H27.9003V15.9144H27.545V15.3818Z" fill="#334D2C"/>
<path fill-rule="evenodd" clip-rule="evenodd" d="M26.9357 16.0037H27.2913V16.5362H26.9357V16.0037Z" fill="#334D2C"/>
<path fill-rule="evenodd" clip-rule="evenodd" d="M17.6496 12.7812H17.9688V13.3235H17.6496V12.7812Z" fill="#334D2C"/>
<path fill-rule="evenodd" clip-rule="evenodd" d="M17.6496 14.0474H17.9688V14.5891H17.6496V14.0474Z" fill="#334D2C"/>
<path fill-rule="evenodd" clip-rule="evenodd" d="M17.6496 15.3127H17.9688V15.8546H17.6496V15.3127Z" fill="#334D2C"/>
<path fill-rule="evenodd" clip-rule="evenodd" d="M17.6496 16.5779H17.9688V17.1201H17.6496V16.5779Z" fill="#334D2C"/>
<path fill-rule="evenodd" clip-rule="evenodd" d="M17.6496 17.843H17.9688V18.3853H17.6496V17.843Z" fill="#334D2C"/>
<path fill-rule="evenodd" clip-rule="evenodd" d="M17.1041 13.4153H17.4229V13.9566H17.1041V13.4153Z" fill="#334D2C"/>
<path fill-rule="evenodd" clip-rule="evenodd" d="M16.7854 15.3127H17.1041V15.8546H16.7854V15.3127Z" fill="#334D2C"/>
<path fill-rule="evenodd" clip-rule="evenodd" d="M16.7854 17.2102H17.1041V17.7524H16.7854V17.2102Z" fill="#334D2C"/>
<path fill-rule="evenodd" clip-rule="evenodd" d="M16.9825 20.5155C16.6361 20.6324 16.2993 20.7518 15.9676 20.8707C15.7838 20.9333 15.6004 20.996 15.4208 21.0582C14.4161 21.4249 13.4514 21.7774 12.4745 22.0758C11.8434 22.2822 11.2145 22.4724 10.5747 22.6359C9.26552 22.9355 7.88351 23.0999 6.30438 23.0378C10.1168 23.6863 13.8624 24.6647 16.9793 26.9986C20.5051 27.2989 24.0661 26.4581 27.2433 25.1965C29.1233 24.4501 32.0333 22.8434 33.7544 21.8079C33.8802 21.718 33.9041 21.5816 33.7143 21.4895C30.1952 20.171 27.0756 19.2686 23.763 19.2686C21.6348 19.2686 19.4267 19.6413 16.9825 20.5156V20.5155Z" fill="url(#paint0_linear_1643_5104)"/>
<path fill-rule="evenodd" clip-rule="evenodd" d="M4.13593 22.6982H4.13468H4.13156C4.06731 22.6995 4.03306 22.7347 4.02044 22.7554C3.99232 22.7987 3.99057 22.8581 4.03194 22.9161C7.12257 26.5858 12.5409 30.5816 17.7307 29.8665C18.3047 29.7888 18.8534 29.6809 19.3932 29.5308C19.5786 29.4885 19.5545 29.4345 19.4812 29.3506C15.5269 24.698 9.89472 23.5501 4.32679 22.7262C4.24242 22.7124 4.1788 22.7 4.13593 22.6981V22.6982Z" fill="url(#paint1_linear_1643_5104)"/>
<path d="M22.2879 28.4616L21.5586 28.5974L21.5374 28.4828L21.6577 28.4612C21.6231 28.2778 21.5673 28.1504 21.4862 28.0807C21.4241 28.0259 21.3493 28.0062 21.2655 28.0219C21.1728 28.0394 21.1061 28.0914 21.0634 28.1807C21.0076 28.2981 21.0007 28.4648 21.0411 28.6819C21.061 28.7907 21.089 28.8939 21.1227 28.9907C21.1572 29.0873 21.2075 29.2103 21.2751 29.3595C21.342 29.5087 21.3857 29.635 21.4046 29.7382C21.4092 29.7617 21.4106 29.7838 21.4092 29.8042C21.4068 29.8245 21.4065 29.8433 21.406 29.8595L21.402 29.9023C21.4153 29.9102 21.4373 29.9111 21.4687 29.9051C21.5748 29.8857 21.6608 29.7968 21.7299 29.6385C21.7985 29.48 21.8167 29.3165 21.7853 29.1465C21.7793 29.1134 21.7742 29.0889 21.7709 29.0738L21.6517 29.0953L21.6301 28.9783L22.3593 28.8428L22.3805 28.9598L22.2666 28.981C22.3085 29.2099 22.2413 29.426 22.063 29.631C21.8987 29.8212 21.7033 29.9373 21.4771 29.9792C21.4217 29.9895 21.3816 29.9945 21.3568 29.994C21.331 29.994 21.3002 29.9903 21.2656 29.9828L21.2583 29.9447C21.2472 29.8862 21.2225 29.8327 21.1847 29.7853C21.1465 29.7383 21.0612 29.655 20.9276 29.5361C20.8097 29.4329 20.724 29.3315 20.6715 29.2325C20.6369 29.168 20.611 29.0884 20.5926 28.9925L20.5799 28.9197C20.5305 28.6594 20.5766 28.4332 20.7171 28.2393C20.848 28.0569 21.0326 27.9436 21.2713 27.8999C21.5292 27.8519 21.7408 27.892 21.9067 28.0211C22.0149 28.1059 22.0978 28.222 22.153 28.3693L22.2673 28.3471L22.288 28.4618L22.2879 28.4616ZM23.691 29.3475L23.8713 29.3074C23.7615 29.1226 23.65 28.9115 23.5377 28.6739C23.4797 28.5506 23.41 28.393 23.329 28.2013L23.2313 27.982C23.2098 28.0211 23.1917 28.0621 23.1769 28.1056C23.1613 28.1485 23.1462 28.2015 23.1296 28.264C23.0839 28.4161 23.0567 28.5524 23.0488 28.6713C23.0406 28.7901 23.0461 28.8923 23.0654 28.9777C23.0927 29.0993 23.1157 29.1748 23.1337 29.2029C23.1526 29.2315 23.1737 29.243 23.1962 29.2379C23.2239 29.2319 23.2442 29.2375 23.2586 29.255C23.2839 29.2873 23.3114 29.3711 23.3414 29.5051C23.3478 29.5341 23.3418 29.5557 23.3226 29.5687C23.3023 29.582 23.2816 29.5914 23.2577 29.5969C23.2429 29.6001 23.2249 29.6025 23.2047 29.6039C23.1848 29.6057 23.1688 29.6066 23.1568 29.6075C23.1444 29.608 23.1309 29.6099 23.1134 29.6135C23.0974 29.6171 23.0853 29.6204 23.0776 29.6219C23.0431 29.6297 23.0163 29.6384 22.9983 29.6472C22.9795 29.6564 22.9638 29.6624 22.95 29.6656C22.9228 29.6716 22.8988 29.6697 22.8772 29.6605C22.8556 29.6509 22.8385 29.627 22.826 29.5891L22.8038 29.4892C22.7807 29.3865 22.7747 29.2815 22.7858 29.1741C22.7965 29.0663 22.8315 28.8968 22.8917 28.6652L22.9968 28.2708C23.0354 28.134 23.0566 28.0539 23.0622 28.0304C23.0907 27.9032 23.0999 27.8166 23.0897 27.7701C23.0824 27.7388 23.0708 27.7209 23.0552 27.7168C23.0386 27.7116 23.0142 27.7135 22.9805 27.7209L22.792 27.7628L22.7662 27.6466L23.676 27.4439L23.7014 27.56L23.5333 27.5979C23.6189 27.8286 23.7239 28.076 23.8484 28.3395C23.9557 28.5676 24.075 28.7993 24.2072 29.035C24.2202 29.0582 24.2367 29.089 24.2561 29.1258C24.2758 29.1636 24.2911 29.1921 24.3017 29.2125L24.5022 29.1678L24.528 29.2839L23.7168 29.4641L23.6909 29.348L23.691 29.3475ZM24.8533 27.2151L24.6478 27.2842L24.6092 27.1712L25.4425 26.8916L25.4803 27.0044L25.271 27.0749L26.3287 28.5988L26.5153 28.5362L26.5539 28.6496L25.7491 28.9195L25.7109 28.8067L25.9141 28.7386L25.4808 28.1107C25.5046 28.3332 25.4909 28.5441 25.4384 28.7441C25.3758 28.9809 25.273 29.1236 25.1297 29.1715C25.043 29.2005 24.9653 29.1996 24.8957 29.1679C24.8137 29.1305 24.7552 29.0569 24.7189 28.9482C24.6704 28.8049 24.6566 28.6298 24.6779 28.4238C24.6944 28.2678 24.7349 28.0669 24.7986 27.821C24.8262 27.7219 24.8538 27.6224 24.8814 27.5234C24.9022 27.4243 24.9017 27.34 24.879 27.2728C24.8739 27.2593 24.8663 27.24 24.8533 27.2152V27.2151ZM24.9017 28.6791C24.9215 28.7371 24.95 28.7772 24.9883 28.7976C25.027 28.8178 25.0663 28.8214 25.1082 28.8075C25.1588 28.7905 25.1938 28.7569 25.2126 28.7067C25.2464 28.6091 25.278 28.4929 25.3063 28.3573C25.3444 28.1731 25.3545 28.0345 25.3361 27.9424L25.0514 27.4969C25.0195 27.6 24.9864 27.7023 24.9532 27.8036C24.9265 27.8925 24.9075 27.97 24.8965 28.0367C24.8814 28.1164 24.8727 28.2225 24.8703 28.3527C24.8684 28.5024 24.8791 28.6112 24.9017 28.6789V28.6791ZM26.947 28.4132L26.4855 27.2528C26.3869 27.0034 26.3677 26.822 26.4279 26.7092C26.4878 26.5958 26.6642 26.4812 26.9586 26.3655C27.1262 26.2987 27.2787 26.2886 27.4165 26.3346C27.5431 26.3765 27.628 26.4559 27.674 26.5724C27.7228 26.6962 27.7071 26.8166 27.628 26.9336C27.5662 27.0216 27.4981 27.0804 27.4225 27.1109C27.4105 27.1174 27.3967 27.1248 27.3823 27.1313C27.3685 27.1381 27.358 27.1428 27.3519 27.1446C27.3141 27.1602 27.2662 27.1629 27.2082 27.1533L27.0774 27.308C27.181 27.3394 27.2796 27.356 27.3722 27.3578C27.403 27.3583 27.4407 27.3559 27.4865 27.3495C27.5321 27.3435 27.5771 27.3367 27.6232 27.3292C27.7112 27.3137 27.7609 27.3058 27.7716 27.3062C27.8572 27.3015 27.9208 27.3195 27.9618 27.3583C27.9862 27.3813 28.0083 27.4195 28.0299 27.4729L28.1575 27.7973L28.1927 27.8856C28.2083 27.9266 28.1982 27.9717 28.1599 28.0219C28.1222 28.0721 28.0775 28.1076 28.0254 28.1284L26.7714 28.6102L26.7277 28.4997L26.9469 28.413L26.947 28.4132ZM27.354 28.2521L27.6801 28.124C27.7247 28.106 27.7514 28.0825 27.7597 28.054C27.7672 28.0254 27.7566 27.9739 27.7279 27.9L27.6105 27.6035C27.5953 27.5644 27.5787 27.5385 27.5603 27.5252C27.542 27.5122 27.5003 27.5017 27.4346 27.4933C27.3249 27.4814 27.2485 27.4708 27.2066 27.4619C27.1385 27.4482 27.0749 27.4242 27.014 27.3905L27.3541 28.252L27.354 28.2521ZM26.9775 27.2989L27.1052 27.0984C27.1231 27.0993 27.1406 27.0966 27.16 27.0893C27.1854 27.0796 27.2097 27.0648 27.2305 27.0451C27.2522 27.0267 27.2651 27.0114 27.2696 27.0013C27.2904 26.9456 27.3022 26.9146 27.3042 26.9073C27.3074 26.8612 27.289 26.7885 27.2489 26.6885C27.213 26.5967 27.166 26.5365 27.1099 26.5089C27.0523 26.4812 26.9941 26.4789 26.9325 26.5037C26.8366 26.5415 26.7951 26.6271 26.8071 26.7612C26.814 26.8502 26.85 26.9744 26.9135 27.1352C26.925 27.1652 26.9361 27.1933 26.9466 27.2199C26.9573 27.2467 26.9674 27.2729 26.9775 27.2988V27.2989ZM29.4973 25.3723L29.5476 25.4811L29.3328 25.5788L30.0565 27.1639L30.2712 27.0662L30.3205 27.1749L29.5825 27.5112L29.5337 27.4029L29.6585 27.3463L29.2983 26.5572C29.1487 26.626 29.052 26.7355 29.0095 26.8862C28.9575 27.0737 28.9962 27.308 29.1242 27.5896L29.2251 27.5439L29.2744 27.6521L28.6106 27.9557L28.5609 27.8475L28.6797 27.7926C28.5573 27.5237 28.5485 27.2754 28.6516 27.0497C28.7411 26.8535 28.8935 26.706 29.1087 26.608L29.0916 26.5702C28.812 26.6562 28.5766 26.6673 28.3863 26.6043C28.2237 26.5499 28.1104 26.4527 28.0468 26.3131C27.9998 26.2105 28.0058 26.127 28.0643 26.0635C28.1022 26.0221 28.1929 25.9682 28.338 25.9023L29.4974 25.3726L29.4973 25.3723ZM29.2117 26.3679L28.9349 25.7607L28.6414 25.8943C28.5733 25.9257 28.529 25.9617 28.5091 26.0025C28.4893 26.0431 28.4916 26.0896 28.516 26.1421C28.5666 26.2555 28.6611 26.338 28.797 26.3886C28.9324 26.4394 29.0711 26.4319 29.2116 26.3679H29.2117ZM30.7678 25.804L31.1769 26.6221L31.3524 26.5346L31.4062 26.641L30.6282 27.0303L30.5748 26.9234L30.7848 26.818L30.0059 25.2591L29.7954 25.3641L29.7424 25.2572L30.521 24.8692L30.574 24.9752L30.3985 25.0631L30.7067 25.6814L31.264 25.4032L30.9577 24.7836L30.7878 24.8692L30.7333 24.7624L31.5068 24.3759L31.5598 24.4823L31.3493 24.5878L32.1282 26.147L32.3392 26.042L32.3926 26.1484L31.6191 26.5344L31.5658 26.4275L31.7335 26.3436L31.3277 25.5244L30.768 25.8037L30.7678 25.804ZM32.6907 24.6561L32.779 24.6004L32.7727 24.5124L32.7555 24.4033L32.7404 24.2678C32.7145 24.0136 32.703 23.8592 32.7068 23.8053C32.716 23.6395 32.7764 23.5206 32.8864 23.4501C32.9652 23.4004 33.0435 23.37 33.1223 23.3599C33.1339 23.416 33.1463 23.4712 33.1583 23.5275C33.1638 23.5477 33.1776 23.574 33.1988 23.6081C33.219 23.6515 33.2421 23.6916 33.2651 23.7283L33.2173 23.7587L33.121 23.7781C33.0998 23.779 33.0773 23.7841 33.0529 23.7914C33.0285 23.7988 33.0017 23.8113 32.9732 23.8292C32.8793 23.8901 32.8534 24.1347 32.8949 24.5654C33.1929 24.4571 33.4394 24.4465 33.6334 24.5323C33.7973 24.6041 33.9447 24.7422 34.0746 24.9469L34.2178 24.8551L34.2823 24.956L33.6342 25.3697L33.5701 25.2688L33.6627 25.2095C33.5144 24.9772 33.3836 24.8257 33.2716 24.7566C33.1243 24.6668 32.9493 24.6618 32.7457 24.7419L33.2228 25.4899L33.3716 25.3956L33.4361 25.4964L32.7203 25.9529L32.6553 25.8522L32.8543 25.7259L31.9165 24.2565L31.7184 24.3832L31.6543 24.2828L32.3872 23.8148L32.4512 23.9157L32.2853 24.0212L32.6908 24.6565L32.6907 24.6561ZM33.9547 22.9051L33.7773 23.0323L33.7087 22.9351L34.4237 22.4247L34.4928 22.5211L34.3137 22.6495L35.7708 23.7974L35.9307 23.6832L36.0002 23.7803L35.3092 24.2738L35.2406 24.177L35.4152 24.0522L34.8169 23.5786C34.9047 23.7844 34.9536 23.9904 34.9615 24.1969C34.9707 24.4415 34.9135 24.6078 34.7905 24.6958C34.7169 24.7487 34.6413 24.7705 34.5662 24.7612C34.4774 24.7489 34.3999 24.6964 34.3322 24.6023C34.2447 24.4793 34.1802 24.3162 34.1406 24.1135C34.1106 23.9592 34.0908 23.7551 34.0797 23.5013C34.0769 23.398 34.0742 23.2954 34.0718 23.1922C34.0627 23.0913 34.0373 23.0116 33.9963 22.9531C33.9876 22.942 33.9741 22.9259 33.9548 22.9051H33.9547ZM34.4288 24.2913C34.4643 24.3419 34.5034 24.3705 34.5467 24.3797C34.5885 24.388 34.6283 24.3797 34.6636 24.3543C34.7074 24.3229 34.7305 24.2807 34.7341 24.227C34.7388 24.1234 34.7341 24.0036 34.7211 23.8659C34.7041 23.6778 34.6733 23.543 34.6294 23.4601L34.2268 23.1174C34.2259 23.2252 34.2241 23.333 34.2222 23.4394C34.2222 23.532 34.2268 23.6116 34.2361 23.6785C34.2457 23.7596 34.2678 23.8631 34.3043 23.9891C34.3453 24.1327 34.3867 24.2337 34.4287 24.2913H34.4288Z" fill="#334D2C"/>
<defs>
<linearGradient id="paint0_linear_1643_5104" x1="6.30451" y1="23.2837" x2="33.9042" y2="23.2837" gradientUnits="userSpaceOnUse">
<stop stop-color="#334D2C"/>
<stop offset="0.219608" stop-color="#334D2C"/>
<stop offset="0.701961" stop-color="#5A8032"/>
<stop offset="1" stop-color="#95C12B"/>
</linearGradient>
<linearGradient id="paint1_linear_1643_5104" x1="3.99057" y1="26.6399" x2="19.5786" y2="26.6399" gradientUnits="userSpaceOnUse">
<stop stop-color="#334D2C"/>
<stop offset="0.658824" stop-color="#64872C"/>
<stop offset="1" stop-color="#95C12B"/>
</linearGradient>
</defs>
</svg>
